<svg xmlns="http://www.w3.org/2000/svg" viewBox="0 0 184.78 101.31"><defs><style>.cls-1{fill:lime;}.cls-2{fill:#fff;}</style></defs><g id="Layer_2" data-name="Layer 2"><g id="Layer_1-2" data-name="Layer 1"><path d="M39.48,49.89V74.6c0,13.65,23.69,24.71,52.91,24.71S145.3,88.25,145.3,74.6V49.89"/><path class="cls-1" d="M39.48,49.89c.44,7.31.7,14.61,1,21.92l.08,2.74.11,1.25c.09.41.15.82.26,1.22a13.14,13.14,0,0,0,2.22,4.46A26.5,26.5,0,0,0,51,88.17a66,66,0,0,0,20,7.1,105.07,105.07,0,0,0,21.39,2,105.78,105.78,0,0,0,21.39-2,65.55,65.55,0,0,0,20-7.11,26.08,26.08,0,0,0,7.85-6.68A13.31,13.31,0,0,0,143.87,77c.11-.4.16-.81.25-1.21l.11-1.25.09-2.74c.27-7.31.54-14.61,1-21.92.45,7.31.71,14.61,1,21.92l.09,2.74c0,.49,0,1-.05,1.5s-.11,1-.21,1.48A15.84,15.84,0,0,1,143.8,83a28.05,28.05,0,0,1-8.37,7.85,53.16,53.16,0,0,1-4.93,2.78c-1.71.81-3.43,1.56-5.19,2.21A79.67,79.67,0,0,1,114.56,99a105.41,105.41,0,0,1-22.17,2.34A106.07,106.07,0,0,1,70.22,99,79.71,79.71,0,0,1,59.47,95.8c-1.76-.64-3.48-1.4-5.18-2.2a52.15,52.15,0,0,1-4.94-2.79A28.11,28.11,0,0,1,41,83a15.64,15.64,0,0,1-2.31-5.44c-.1-.49-.15-1-.22-1.48s0-1,0-1.5l.08-2.74C38.78,64.5,39,57.2,39.48,49.89Z"/><path d="M135,33.44c6.49,4.1,10.32,9.18,10.32,14.67,0,13.65-23.69,24.71-52.91,24.71S39.48,61.76,39.48,48.11c0-5.76,4.21-11.06,11.28-15.26"/><path class="cls-1" d="M135,33.44A26.26,26.26,0,0,1,143,40a15.26,15.26,0,0,1,2.56,4.71,12.52,12.52,0,0,1,.51,5.45,17.24,17.24,0,0,1-5,9.57,36.43,36.43,0,0,1-8.6,6.31,70.92,70.92,0,0,1-19.84,6.87,107.77,107.77,0,0,1-20.81,2A105.53,105.53,0,0,1,71,72.65,82.93,82.93,0,0,1,60.9,69.81a54.76,54.76,0,0,1-9.62-4.37,39.3,39.3,0,0,1-4.44-2.95,26.4,26.4,0,0,1-4-3.67,19.36,19.36,0,0,1-3-4.56,13.82,13.82,0,0,1-1.31-5.37,12.88,12.88,0,0,1,1-5.37A16.69,16.69,0,0,1,42.45,39a28.56,28.56,0,0,1,8.31-6.18,30.55,30.55,0,0,0-7.44,6.88A16.17,16.17,0,0,0,41,44.06a11.16,11.16,0,0,0-.51,4.71A13.82,13.82,0,0,0,44.8,57a32,32,0,0,0,8,5.67,70.24,70.24,0,0,0,19,6.23,106.33,106.33,0,0,0,20.07,1.87,108.15,108.15,0,0,0,20.1-1.66A72.87,72.87,0,0,0,131,63.24a45.67,45.67,0,0,0,4.32-2.44,33.34,33.34,0,0,0,3.88-3,15,15,0,0,0,4.93-8,10.79,10.79,0,0,0-.07-4.73,14.85,14.85,0,0,0-2-4.48A28.29,28.29,0,0,0,135,33.44Z"/><path class="cls-1" d="M56.84,65.6c-.44-5.84-.7-11.67-1-17.5l-.09-2.19c0-.74,0-1.52,0-2.27A26.28,26.28,0,0,1,66.21,23.8a27.56,27.56,0,0,1,4-2.49,37.4,37.4,0,0,1,4.23-1.77L90.87,13.6,107.4,7.86l8.29-2.78,4.15-1.39,4.22-1.36a8.32,8.32,0,0,1,9.28,3.38,8.27,8.27,0,0,1,1.32,4.85l0,4.37c0,5.83,0,11.66-.19,17.51-.71-5.81-1.23-11.63-1.77-17.46l-.37-4.37a5.69,5.69,0,0,0-1.17-3.39,5.85,5.85,0,0,0-2.83-2,5.32,5.32,0,0,0-3.37.07l-4,1.54-4.1,1.53-8.2,3L92.2,17.37,75.67,23.1a33.9,33.9,0,0,0-3.89,1.48,23.24,23.24,0,0,0-3.51,2,24.75,24.75,0,0,0-5.78,5.73,24.62,24.62,0,0,0-4.43,11.46c-.17,1.36-.17,2.82-.24,4.29C57.55,53.93,57.28,59.76,56.84,65.6Z"/><path class="cls-1" d="M51.15,63c-.44-5.12-.7-10.23-1-15.35L50,43.85c0-.62,0-1.3,0-2a16.89,16.89,0,0,1,.08-2A26,26,0,0,1,52,32a26.48,26.48,0,0,1,10.5-12.26,35.45,35.45,0,0,1,7.34-3.25l7.22-2.61,14.51-5c4.86-1.6,9.69-3.28,14.58-4.81l7.32-2.32L117.15.63l.92-.28A10.11,10.11,0,0,1,119.15.1,9.18,9.18,0,0,1,121.3,0a17.83,17.83,0,0,1,7.54,2.62,14.21,14.21,0,0,1,3,2.53,5.2,5.2,0,0,1,1.43,3.58,5,5,0,0,0-1.86-3.16,13.48,13.48,0,0,0-3.14-2A17,17,0,0,0,121.24,2a8.05,8.05,0,0,0-1.67.19c-.26.09-.47.13-.77.25l-.89.36-3.56,1.43L107.2,7c-4.76,1.88-9.57,3.62-14.36,5.43L78.41,17.68,71.16,20.2A34.94,34.94,0,0,0,64.45,23a24.27,24.27,0,0,0-9.61,10.3,24.83,24.83,0,0,0-2.19,6.87A15.71,15.71,0,0,0,52.42,42c-.05.61-.11,1.21-.12,1.86l-.17,3.84C51.86,52.81,51.59,57.92,51.15,63Z"/><path d="M72.18,45.69c19.14,6.41,36.61,6,52.22-2.13,11.85-6.14,6.35-17.2,3-22.18a3.91,3.91,0,0,0-4.67-1.45L70.54,40.37a6.48,6.48,0,0,0-4.12,6V59.25a5.19,5.19,0,0,0,4.15,5.09C111.18,72.56,132.68,59,132.68,49V36.22"/><path class="cls-1" d="M72.18,45.69l3.79,1c1.28.28,2.54.6,3.82.86,2.56.52,5.12,1,7.71,1.26a66.24,66.24,0,0,0,15.48,0,59.32,59.32,0,0,0,14.87-3.8c4.63-2,9.74-4.12,11.44-8.33A9.1,9.1,0,0,0,130,33.5a13.13,13.13,0,0,0-.43-3.44,23.07,23.07,0,0,0-2.94-6.64,11.59,11.59,0,0,0-.91-1.32,2.06,2.06,0,0,0-.9-.55,2.12,2.12,0,0,0-1.06-.05l-.25.07-.13,0-.23.1-.91.36L115,25,85.78,36.55l-14.6,5.67a4.55,4.55,0,0,0-2.83,4.38l0,7.85,0,3.92v1a3.34,3.34,0,0,0,2.56,3.24l3.76.75A125.91,125.91,0,0,0,90,65.2a89.2,89.2,0,0,0,15.42-.38,55.32,55.32,0,0,0,14.86-3.73,31,31,0,0,0,6.63-3.73,14.84,14.84,0,0,0,4.78-5.7l.31-.87.2-.9.09-.92,0-1,.11-3.93.3-7.84.31,7.84L133.1,48l0,1,0,1-.17,1-.29,1a16,16,0,0,1-4.82,6.5A32.4,32.4,0,0,1,121,62.88a57.23,57.23,0,0,1-15.32,4.54,87.27,87.27,0,0,1-15.9.9A115,115,0,0,1,74,66.77L70,66.05a7,7,0,0,1-4.27-2.92,7.11,7.11,0,0,1-1-2.42,6.53,6.53,0,0,1-.16-1.32l0-1,0-3.92,0-7.85c0-.14,0-.36,0-.57s0-.43,0-.64a7.69,7.69,0,0,1,.25-1.25,8.31,8.31,0,0,1,1-2.32,8.49,8.49,0,0,1,3.86-3.22l14.63-5.78,29.27-11.34,7.34-2.79.91-.35.23-.09.34-.12c.22-.07.46-.12.69-.17a5.85,5.85,0,0,1,2.82.19,5.62,5.62,0,0,1,2.38,1.53,13.37,13.37,0,0,1,1.32,1.91,26,26,0,0,1,3.22,7.71,16.52,16.52,0,0,1,.39,4.35A12.23,12.23,0,0,1,132.14,38a14,14,0,0,1-6,6.2,50.78,50.78,0,0,1-7.37,3.31,60.27,60.27,0,0,1-15.62,3.3,68.48,68.48,0,0,1-15.81-.91c-2.6-.44-5.17-1-7.7-1.73-1.27-.35-2.51-.77-3.76-1.15Z"/><circle class="cls-2" cx="81.21" cy="43.47" r="2.42"/><circle class="cls-2" cx="97.59" cy="45.18" r="2.42"/><circle class="cls-2" cx="99.28" cy="36.97" r="2.42"/><circle class="cls-2" cx="108.57" cy="42.19" r="2.42"/><circle class="cls-2" cx="89.97" cy="40.84" r="2.42"/><circle class="cls-2" cx="110.02" cy="32.85" r="2.42"/><circle class="cls-2" cx="118.18" cy="39.26" r="2.42"/><circle class="cls-2" cx="120.05" cy="28.84" r="2.42"/><circle class="cls-2" cx="125.52" cy="35.27" r="2.42"/><circle class="cls-2" cx="127.6" cy="48.9" r="2.42"/><circle class="cls-2" cx="122.13" cy="55.78" r="2.42"/><circle class="cls-2" cx="114.72" cy="53.18" r="2.42"/><circle class="cls-2" cx="108.6" cy="59.95" r="2.42"/><circle class="cls-2" cx="101.68" cy="54.82" r="2.42"/><circle class="cls-2" cx="94.65" cy="61.43" r="2.42"/><circle class="cls-2" cx="89.03" cy="54.97" r="2.42"/><circle class="cls-2" cx="81.42" cy="60.24" r="2.42"/><circle class="cls-2" cx="77.9" cy="52.83" r="2.42"/><circle class="cls-2" cx="72.26" cy="58.2" r="2.42"/><polygon class="cls-2" points="156.83 30.14 172.47 18.19 158.83 32.38 156.83 30.14"/><polygon class="cls-2" points="172.47 82.46 156.83 70.51 158.83 68.27 172.47 82.46"/><polygon class="cls-2" points="165.15 48.82 184.78 50.32 165.15 51.82 165.15 48.82"/><polygon class="cls-2" points="27.95 70.51 12.31 82.46 25.95 68.27 27.95 70.51"/><polygon class="cls-2" points="12.31 18.19 27.95 30.14 25.95 32.38 12.31 18.19"/><polygon class="cls-2" points="19.63 51.82 0 50.32 19.63 48.82 19.63 51.82"/></g></g></svg>