<svg xmlns="http://www.w3.org/2000/svg" viewBox="0 0 227.44 118.11"><defs><style>.cls-1,.cls-3,.cls-4{fill:none;stroke-linecap:round;}.cls-1{stroke:gray;}.cls-1,.cls-2{stroke-miterlimit:10;stroke-width:1.62px;}.cls-2{stroke:#fff;}.cls-3,.cls-4{stroke:red;stroke-linejoin:round;}.cls-3{stroke-width:2.57px;}.cls-4{stroke-width:2.31px;}.cls-5{fill:#f2f2f2;}.cls-6{fill:#fff;}</style></defs><g id="Layer_2" data-name="Layer 2"><g id="Layer_1-2" data-name="Layer 1"><path class="cls-1" d="M154,14.38H114.9A2.9,2.9,0,0,1,112,11.54l-.1-5.62a2.25,2.25,0,0,0-2.23-2.2h-42a2.16,2.16,0,0,0-2.16,2.2l.1,5.62a2.78,2.78,0,0,1-2.79,2.84H26c-5.23,0-9.44,3.71-9.51,8.38l-1,69.95c-.07,4.85,4.37,8.85,9.81,8.85H155.51c5.33,0,9.58-3.85,9.5-8.61L163.79,23C163.71,18.24,159.32,14.38,154,14.38Z"/><path class="cls-1" d="M167.77,117.3H12.53A11.77,11.77,0,0,1,.81,105.46L1.79,12A11.27,11.27,0,0,1,13.1.81H165.74a11.77,11.77,0,0,1,11.72,11.52l1.63,93.45A11.29,11.29,0,0,1,167.77,117.3Z"/><path class="cls-2" d="M151.36,17.59H113.88a4.47,4.47,0,0,1-4.46-4.38l-.1-5.39a1.23,1.23,0,0,0-1.22-1.21H69.23a1.18,1.18,0,0,0-1.18,1.21l.09,5.39a4.28,4.28,0,0,1-4.3,4.38H29.09c-5,0-9,3.45-9.08,7.77l-1,64.85c-.07,4.49,4.17,8.21,9.36,8.21H58.32a5.71,5.71,0,0,1,3.46,1.17l6.67,5.08A6.16,6.16,0,0,0,72.2,106h35.59a6,6,0,0,0,3.35-1l8.33-5.58a5.55,5.55,0,0,1,3.09-.93h30.21c5.09,0,9.16-3.58,9.08-8l-1.13-64.85C160.64,21.17,156.45,17.59,151.36,17.59Z"/><circle class="cls-3" cx="121.99" cy="67.32" r="15.79"/><path class="cls-4" d="M122,78.29A11,11,0,0,0,132.8,69.2H111.19A11,11,0,0,0,122,78.29Z"/><path class="cls-4" d="M122,56.35a11,11,0,0,0-10.83,9.3h21.67A11,11,0,0,0,122,56.35Z"/><path class="cls-5" d="M148,67.15a26.39,26.39,0,0,0-25-26c-13.33-.06-26.73,0-40.09,0l-20,0H60.3l-2.46.12c-.82.08-1.63.23-2.45.35s-1.6.38-2.4.57a26.59,26.59,0,0,0-8.76,4.45,26.4,26.4,0,0,0-5.6,35.69A26.25,26.25,0,0,1,34,63.21a26.57,26.57,0,0,1,9.86-17.13,26.25,26.25,0,0,1,9-4.65c.82-.2,1.63-.46,2.47-.6s1.67-.29,2.51-.37l2.54-.13h2.51l20,0,20,0,10,0,5,0c1.68,0,3.33,0,5,.1a26.48,26.48,0,0,1,25,26.69Z"/><path d="M101.54,79.39,95.46,69v0a6.06,6.06,0,0,0,.29-4.36l1.15-.81a19.44,19.44,0,0,0,6.67-8.08l11.16-25.28-1-.19a7.2,7.2,0,0,0-7.39,3.3L89.75,60.32a6.09,6.09,0,0,0-4.34,2l-1-.47a19.48,19.48,0,0,0-10.34-1.69L46.59,63.27l.36,1A7.21,7.21,0,0,0,53.52,69l31.37.82a6,6,0,0,0,2.49,2.12,5.91,5.91,0,0,0,1.55.48l.18,1.43a19.45,19.45,0,0,0,4,9.67l.42.53m-.17-15.4a4.22,4.22,0,1,1-1.65-5.74A4.21,4.21,0,0,1,93.38,68.64Z"/><path class="cls-5" d="M101.54,79.4,95.37,69.05l0,0,0,0a6,6,0,0,0,.26-4.32l0-.09.08,0a20.33,20.33,0,0,0,6.76-7c.82-1.41,1.4-3,2.09-4.47l2-4.54,8-18.16.21.4a11.23,11.23,0,0,0-2.48-.28,6.8,6.8,0,0,0-2.4.52,7.16,7.16,0,0,0-3.56,3.29L100.86,43,90.08,60.53l-.11.18h-.21a5.74,5.74,0,0,0-4.05,1.89l-.21.23-.26-.14a19.69,19.69,0,0,0-9.3-2.26c-1.6,0-3.23.29-4.86.44l-4.89.54L46.62,63.56l.24-.39a11.25,11.25,0,0,0,1,2.29,6.77,6.77,0,0,0,1.64,1.82,7.2,7.2,0,0,0,4.64,1.46L64.39,69c6.84.2,13.67.39,20.51.64H85l0,.06A5.94,5.94,0,0,0,89,72.31H89v.08c.13,1,.22,2.11.44,3.14a19.21,19.21,0,0,0,.89,3A19.85,19.85,0,0,0,93.55,84a19.93,19.93,0,0,1-3.28-5.43,18.8,18.8,0,0,1-1-3c-.24-1-.35-2.1-.49-3.15l.09.09a6.16,6.16,0,0,1-4.14-2.63l.11.07c-6.84-.11-13.68-.28-20.51-.44l-10.26-.24a7.75,7.75,0,0,1-5-1.55,7.44,7.44,0,0,1-1.79-2,11.48,11.48,0,0,1-1.06-2.39L46.18,63l.37,0,19.56-2.25L71,60.16c1.63-.16,3.24-.44,4.93-.47A20.54,20.54,0,0,1,85.58,62l-.47.1a6.5,6.5,0,0,1,4.62-2.15l-.32.19,10.87-17.46,5.43-8.73a7.84,7.84,0,0,1,3.87-3.51,7.31,7.31,0,0,1,2.61-.56,12.35,12.35,0,0,1,2.61.31l.35.06-.14.34-8.07,18.11-2,4.53c-.69,1.49-1.28,3-2.13,4.49a20.45,20.45,0,0,1-7,7l0-.14A6.17,6.17,0,0,1,95.54,69V69Z"/><path class="cls-5" d="M93.38,68.64a4.42,4.42,0,0,1-8.08-.77,4.43,4.43,0,0,1,6.52-5.15,4.43,4.43,0,0,1,2,2.69A4.37,4.37,0,0,1,93.38,68.64Zm0,0a4,4,0,1,0-2.53,2A4.07,4.07,0,0,0,93.38,68.64Z"/><polygon class="cls-6" points="143.19 68.01 179.84 31.36 192.38 43.91 177.14 59.14 225.07 59.14 225.07 76.88 177.14 76.88 192.38 92.11 179.84 104.66 143.19 68.01"/><path d="M179.84,34.72,189,43.91,171.41,61.52h51.28v13H171.41L189,92.11l-9.18,9.19L146.55,68l33.29-33.29m0-6.71-3.36,3.36L143.19,64.65,139.83,68l3.36,3.36,33.29,33.29,3.36,3.35,3.36-3.35,9.18-9.19,3.36-3.36-3.36-3.35-9.5-9.51h44.56V56.77H182.87l9.51-9.5,3.36-3.36-3.36-3.36-9.18-9.18L179.84,28Z"/></g></g></svg>