<svg xmlns="http://www.w3.org/2000/svg" viewBox="0 0 420.44 137.2"><defs><style>.cls-1{fill:gray;}.cls-2{fill:#ff1d25;}.cls-3{fill:#666;}.cls-4,.cls-5,.cls-6{fill:none;}.cls-4,.cls-5,.cls-6,.cls-8{stroke:#666;stroke-miterlimit:10;}.cls-4,.cls-5{stroke-width:2.42px;}.cls-5,.cls-6,.cls-8{stroke-linecap:round;}.cls-6{stroke-width:2.15px;}.cls-7{fill:#fff;}.cls-8{stroke-width:2.24px;}</style></defs><g id="Layer_2" data-name="Layer 2"><g id="Layer_1-2" data-name="Layer 1"><path class="cls-1" d="M328.57,45a10.17,10.17,0,0,0,2.7-.77.05.05,0,0,1,.07,0,0,0,0,0,1,0,.06h0A10,10,0,0,1,328.57,45Z"/><path class="cls-1" d="M333.75,42.89a21.63,21.63,0,0,0,2.24-1.7.13.13,0,0,1,.2,0,.14.14,0,0,1,0,.2h0a18.09,18.09,0,0,1-2.31,1.67.1.1,0,0,1-.14,0A.1.1,0,0,1,333.75,42.89Z"/><path class="cls-1" d="M338,39.2,339.75,37h0a.2.2,0,1,1,.31.25h0l-1.83,2.19a.19.19,0,0,1-.25,0,.17.17,0,0,1,0-.24Z"/><path class="cls-1" d="M341.31,34.68l1.38-2.46v0a.21.21,0,0,1,.29-.08.22.22,0,0,1,.09.3h0l-1.41,2.48a.21.21,0,0,1-.29.07.21.21,0,0,1-.08-.28Z"/><path class="cls-1" d="M343.89,29.67,345,27.06v0a.23.23,0,0,1,.43.18h0l-1.08,2.63a.23.23,0,0,1-.3.13.23.23,0,0,1-.12-.3Z"/><path class="cls-1" d="M345.89,24.4l.82-2.71h0a.22.22,0,1,1,.41.13l-.81,2.72a.21.21,0,0,1-.27.15.21.21,0,0,1-.15-.27Z"/><path class="cls-1" d="M347.42,19l.63-2.76h0a.18.18,0,0,1,.22-.14.18.18,0,0,1,.13.21l-.58,2.78a.22.22,0,0,1-.24.16.21.21,0,0,1-.16-.24Z"/><path class="cls-1" d="M348.6,13.43l.47-2.8a.12.12,0,0,1,.13-.1.13.13,0,0,1,.11.14l-.42,2.81a.15.15,0,0,1-.29-.05Z"/><path class="cls-1" d="M349.49,7.83,349.85,5h0l-.26,2.83a.07.07,0,0,1-.13,0Z"/><path class="cls-1" d="M370.78,79.79a21.82,21.82,0,0,0,2.79-.41s0,0,0,0,0,0,0,0h0A24.23,24.23,0,0,1,370.78,79.79Z"/><path class="cls-1" d="M376.32,78.71l2.69-.88h0a.08.08,0,0,1,.1.06.07.07,0,0,1-.05.1h0l-2.72.83a.06.06,0,1,1,0-.11Z"/><path class="cls-1" d="M381.63,76.78l2.56-1.21h0a.12.12,0,0,1,.17.06.13.13,0,0,1-.06.17h0L381.72,77a.12.12,0,0,1-.15-.06.11.11,0,0,1,.05-.15Z"/><path class="cls-1" d="M386.66,74.21l2.39-1.5h0a.14.14,0,0,1,.2,0,.15.15,0,0,1,0,.2h0l-2.41,1.5a.14.14,0,0,1-.19,0,.13.13,0,0,1,.05-.18Z"/><path class="cls-1" d="M391.35,71.07l2.21-1.76h0a.16.16,0,0,1,.23,0,.15.15,0,0,1,0,.23h0l-2.23,1.76a.15.15,0,1,1-.19-.24Z"/><path class="cls-1" d="M395.67,67.43l2-2h0a.18.18,0,1,1,.25.27h0l-2,2a.18.18,0,0,1-.25,0,.18.18,0,0,1,0-.25Z"/><path class="cls-1" d="M399.59,63.37l1.81-2.17h0a.21.21,0,0,1,.29,0,.19.19,0,0,1,0,.28h0l-1.83,2.18a.19.19,0,0,1-.27,0,.18.18,0,0,1,0-.27Z"/><path class="cls-1" d="M403.1,59l1.61-2.32h0a.22.22,0,0,1,.36.26h0l-1.63,2.32a.21.21,0,0,1-.3,0,.2.2,0,0,1,0-.29Z"/><path class="cls-1" d="M406.22,54.25l1.43-2.44h0a.23.23,0,1,1,.39.23l-1.43,2.46a.23.23,0,1,1-.4-.24Z"/><path class="cls-1" d="M409,49.32l1.26-2.53h0a.21.21,0,0,1,.28-.1.22.22,0,0,1,.1.28l-1.25,2.55a.22.22,0,0,1-.29.11.23.23,0,0,1-.11-.3h0Z"/><path class="cls-1" d="M411.43,44.22l1.09-2.61h0a.2.2,0,0,1,.36.15l-1.08,2.62a.2.2,0,0,1-.26.11.19.19,0,0,1-.11-.26h0Z"/><path class="cls-1" d="M413.54,39l.94-2.66a.19.19,0,0,1,.22-.12.17.17,0,0,1,.1.22l-.92,2.69a.19.19,0,0,1-.23.11.17.17,0,0,1-.11-.23Z"/><path class="cls-1" d="M415.35,33.62l.8-2.72a.15.15,0,0,1,.19-.1.14.14,0,0,1,.1.18l-.78,2.73a.16.16,0,0,1-.2.11.15.15,0,0,1-.11-.2Z"/><path class="cls-1" d="M416.89,28.17l.68-2.75a.13.13,0,0,1,.16-.1.14.14,0,0,1,.1.16l-.66,2.76a.16.16,0,0,1-.18.11.15.15,0,0,1-.1-.18Z"/><path class="cls-1" d="M418.18,22.66l.58-2.78a.1.1,0,0,1,.12-.08.11.11,0,0,1,.08.12l-.54,2.79a.12.12,0,0,1-.14.1.13.13,0,0,1-.1-.15Z"/><path class="cls-1" d="M419.28,17.1l.48-2.79s0,0,.05,0,0,0,0,.05l-.42,2.81a.08.08,0,0,1-.15,0Z"/><path class="cls-1" d="M420.18,11.5l.26-1.84-.22,1.85s0,0,0,0h0Z"/><path class="cls-1" d="M91.87,45a10.15,10.15,0,0,1-2.75-.67.06.06,0,0,1,0-.07.05.05,0,0,1,.07,0h0A10.24,10.24,0,0,0,91.87,45Z"/><path class="cls-1" d="M86.58,43.07a18.09,18.09,0,0,1-2.31-1.67.14.14,0,1,1,.18-.22h0a21.63,21.63,0,0,0,2.24,1.7.11.11,0,0,1-.11.18Z"/><path class="cls-1" d="M82.2,39.44l-1.83-2.19a.2.2,0,0,1,0-.28.22.22,0,0,1,.29,0h0l1.76,2.19,0,0a.18.18,0,0,1,0,.24A.17.17,0,0,1,82.2,39.44Z"/><path class="cls-1" d="M78.77,34.9l-1.41-2.48a.22.22,0,1,1,.38-.22h0v0l1.37,2.46h0a.2.2,0,0,1-.08.28A.2.2,0,0,1,78.77,34.9Z"/><path class="cls-1" d="M76.12,29.85l-1.07-2.63a.23.23,0,0,1,.43-.18h0v0l1.06,2.61h0a.23.23,0,0,1-.13.3A.23.23,0,0,1,76.12,29.85Z"/><path class="cls-1" d="M74.12,24.53l-.8-2.72a.21.21,0,0,1,.14-.27.23.23,0,0,1,.27.14h0l.82,2.71h0a.22.22,0,0,1-.15.28.22.22,0,0,1-.28-.15Z"/><path class="cls-1" d="M72.62,19.05,72,16.27a.19.19,0,0,1,.14-.21.18.18,0,0,1,.22.14h0L73,19h0a.22.22,0,0,1-.16.25.22.22,0,0,1-.24-.16Z"/><path class="cls-1" d="M71.54,13.48l-.41-2.81a.12.12,0,1,1,.24,0l.47,2.8a.14.14,0,0,1-.12.17.15.15,0,0,1-.18-.12Z"/><path class="cls-1" d="M70.81,7.85,70.56,5h0L71,7.83s0,.08-.06.08-.07,0-.08-.06Z"/><path class="cls-1" d="M49.66,79.79a24.23,24.23,0,0,1-2.81-.35s0,0,0,0a0,0,0,0,1,0,0h0A22.23,22.23,0,0,0,49.66,79.79Z"/><path class="cls-1" d="M44.08,78.82,41.37,78a.08.08,0,0,1-.06-.1.09.09,0,0,1,.11-.06h0l2.68.88a.08.08,0,0,1,0,.07A.07.07,0,0,1,44.08,78.82Z"/><path class="cls-1" d="M38.72,77,36.14,75.8a.12.12,0,0,1-.06-.17.12.12,0,0,1,.16-.06h0l2.56,1.21h0a.12.12,0,0,1,.06.15A.12.12,0,0,1,38.72,77Z"/><path class="cls-1" d="M33.64,74.45,31.22,73a.14.14,0,0,1,0-.2.14.14,0,0,1,.2,0h0l2.39,1.5h0a.13.13,0,0,1,0,.18A.13.13,0,0,1,33.64,74.45Z"/><path class="cls-1" d="M28.9,71.32l-2.24-1.76a.16.16,0,0,1,.21-.25h0l2.21,1.76h0a.15.15,0,0,1,0,.22A.15.15,0,0,1,28.9,71.32Z"/><path class="cls-1" d="M24.53,67.69l-2-2a.19.19,0,0,1,0-.26.18.18,0,0,1,.26,0h0l2,2h0a.18.18,0,0,1,0,.25A.16.16,0,0,1,24.53,67.69Z"/><path class="cls-1" d="M20.56,63.63l-1.84-2.18a.2.2,0,0,1,0-.28.19.19,0,0,1,.28,0h0l1.81,2.17h0a.2.2,0,0,1,0,.27A.19.19,0,0,1,20.56,63.63Z"/><path class="cls-1" d="M17,59.2l-1.63-2.32a.21.21,0,0,1,.05-.31.22.22,0,0,1,.31,0h0L17.33,59h0a.21.21,0,0,1-.05.29A.21.21,0,0,1,17,59.2Z"/><path class="cls-1" d="M13.82,54.49,12.38,52a.23.23,0,0,1,.09-.31.22.22,0,0,1,.31.08h0l1.43,2.44h0a.24.24,0,0,1-.08.32.23.23,0,0,1-.32-.08Z"/><path class="cls-1" d="M11.05,49.52,9.8,47a.21.21,0,1,1,.38-.18h0l1.26,2.53h0a.21.21,0,0,1-.1.29.21.21,0,0,1-.29-.09Z"/><path class="cls-1" d="M8.64,44.38,7.56,41.76a.2.2,0,0,1,.1-.25.19.19,0,0,1,.25.1h0L9,44.22H9a.2.2,0,0,1-.11.26.19.19,0,0,1-.26-.11Z"/><path class="cls-1" d="M6.56,39.1l-.93-2.69a.16.16,0,0,1,.11-.21.18.18,0,0,1,.22.11L6.9,39a.19.19,0,0,1-.11.24.18.18,0,0,1-.23-.11Z"/><path class="cls-1" d="M4.78,33.71,4,31a.15.15,0,0,1,.11-.18.14.14,0,0,1,.18.1l.81,2.72a.17.17,0,0,1-.11.2.16.16,0,0,1-.2-.1Z"/><path class="cls-1" d="M3.27,28.24l-.66-2.76a.13.13,0,1,1,.26-.06l.68,2.75a.16.16,0,0,1-.1.18.15.15,0,0,1-.18-.11Z"/><path class="cls-1" d="M2,22.71l-.53-2.79a.1.1,0,0,1,.08-.12.1.1,0,0,1,.12.08l.57,2.78a.11.11,0,0,1-.09.14A.12.12,0,0,1,2,22.71Z"/><path class="cls-1" d="M1,17.13.59,14.32s0-.05,0-.05.05,0,.05,0l.47,2.79a.07.07,0,0,1,0,.09A.07.07,0,0,1,1,17.13Z"/><path class="cls-1" d="M.22,11.51,0,9.66.25,11.5s0,0,0,0,0,0,0,0Z"/><path d="M264.35,59.76V72c0,6.75,11.71,12.22,26.16,12.22S316.67,78.73,316.67,72V59.76"/><path class="cls-2" d="M264.35,59.76c.22,3.61.32,7.23.48,10.84-.4,3.68,2.22,6.37,5.22,8.07.73.47,1.55.8,2.32,1.2s1.61.7,2.46.95l1.25.42,1.28.35c.84.25,1.71.41,2.58.59a51.26,51.26,0,0,0,10.57,1,52,52,0,0,0,10.57-1A32,32,0,0,0,311,78.67c3-1.7,5.62-4.39,5.22-8.07.16-3.61.26-7.23.49-10.84.22,3.61.32,7.23.49,10.84l0,1.36c0,.48-.06,1-.13,1.47a13.43,13.43,0,0,1-.45,1.4,14.44,14.44,0,0,1-.69,1.29A13.54,13.54,0,0,1,311.78,80a25.49,25.49,0,0,1-2.43,1.4c-.85.36-1.69.79-2.57,1.07l-1.3.48-1.33.4c-.88.28-1.78.48-2.68.69a51.92,51.92,0,0,1-21.92,0c-.9-.21-1.8-.41-2.68-.69l-1.33-.4-1.31-.48c-.88-.29-1.71-.71-2.56-1.08A23.57,23.57,0,0,1,269.23,80a13.62,13.62,0,0,1-4.14-3.87,14.44,14.44,0,0,1-.69-1.29,11.41,11.41,0,0,1-.45-1.4c-.08-.49-.1-1-.13-1.47l0-1.36C264,67,264.12,63.37,264.35,59.76Z"/><path class="cls-3" d="M229.68,40.8c5.1-.5,10.19-.77,15.29-.94s10.19-.25,15.29-.27,10.2.07,15.29.26,10.2.44,15.29.95c-5.09.5-10.19.76-15.29.94s-10.19.25-15.29.27-10.19-.08-15.29-.27S234.78,41.3,229.68,40.8Z"/><path class="cls-3" d="M312.88,42.09c10.26,1.34,20.49,3.61,30.05,7.76a51.89,51.89,0,0,1,13.34,8.09,30.26,30.26,0,0,1,5.25,5.87,22.77,22.77,0,0,1,3.22,7.24,25.39,25.39,0,0,1,.53,7.91,30.33,30.33,0,0,1-5.2,14.83,35.68,35.68,0,0,1-5.24,5.94,42.2,42.2,0,0,1-6.32,4.74,54.38,54.38,0,0,1-6.95,3.69,82.55,82.55,0,0,1-14.88,5,144.75,144.75,0,0,1-31,3.64c-10.4.09-20.73.06-31.1.09L202.4,117l-62.16-.11h-7.77c-2.65,0-5.23-.22-7.84-.42-5.19-.41-10.36-1.05-15.51-1.89-10.26-1.74-20.49-4.32-30-8.92a46.09,46.09,0,0,1-12.9-9.06,25.69,25.69,0,0,1-7.25-14c0-.33-.13-.66-.17-1l-.06-1-.11-2c0-.67,0-1.33.07-2a13,13,0,0,1,.18-2l.3-2,.5-1.93a12.7,12.7,0,0,1,.63-1.89A15.57,15.57,0,0,1,61.1,67,30.51,30.51,0,0,1,71.36,55.11a57.42,57.42,0,0,1,14-7,106.55,106.55,0,0,1,15.06-4A185.68,185.68,0,0,1,131.31,41a196.43,196.43,0,0,0-30.79,3.71,104,104,0,0,0-14.87,4.26A70.54,70.54,0,0,0,78.59,52a49,49,0,0,0-6.53,4,29.43,29.43,0,0,0-9.72,11.47,13.82,13.82,0,0,0-.69,1.75,12.58,12.58,0,0,0-.58,1.8l-.45,1.83-.27,1.88a14.74,14.74,0,0,0-.15,1.88c0,.63-.09,1.26-.05,1.89l.13,1.88.07.94c0,.31.11.62.17.93a24.15,24.15,0,0,0,6.95,13.06A44.37,44.37,0,0,0,80,104,88.68,88.68,0,0,0,94.4,109.2a142.13,142.13,0,0,0,15.06,3.27q7.64,1.23,15.34,1.82c2.56.19,5.15.36,7.68.38h7.77l62.16-.11,62.16.11c10.35,0,20.74.07,31.06,0a149.13,149.13,0,0,0,30.63-3.36,80.56,80.56,0,0,0,14.61-4.7,52.61,52.61,0,0,0,6.8-3.51,41.26,41.26,0,0,0,6.14-4.51A34.77,34.77,0,0,0,358.89,93,28.74,28.74,0,0,0,364,78.86a24.73,24.73,0,0,0-.41-7.54,21.78,21.78,0,0,0-2.94-6.94,29.05,29.05,0,0,0-5-5.76,50.89,50.89,0,0,0-13-8.19,93.61,93.61,0,0,0-14.59-5.16A135.36,135.36,0,0,0,312.88,42.09Z"/><path class="cls-3" d="M315.25,80.66A6.47,6.47,0,0,1,317,84.79a7.18,7.18,0,0,1-1.47,4.41A13,13,0,0,1,314,91a17.68,17.68,0,0,1-1.81,1.45l-.95.65c-.33.21-.67.38-1,.57a21.72,21.72,0,0,1-2.05,1,47.47,47.47,0,0,1-35.46-.05,17.63,17.63,0,0,1-7.31-5.52A7.34,7.34,0,0,1,264,84.64a6.67,6.67,0,0,1,1.84-4.09,6.8,6.8,0,0,0-1.17,4.09,6.64,6.64,0,0,0,1.67,3.72A12.1,12.1,0,0,0,269.59,91a21.16,21.16,0,0,0,1.88,1l1,.45,1,.39A40.27,40.27,0,0,0,281.79,95a54.33,54.33,0,0,0,8.65.66,55.46,55.46,0,0,0,8.64-.63,41.86,41.86,0,0,0,8.37-2.09,19.11,19.11,0,0,0,2-.84,16.15,16.15,0,0,0,1.89-1,18.67,18.67,0,0,0,1.77-1.17,12.11,12.11,0,0,0,1.5-1.45,6.34,6.34,0,0,0,1.74-3.7A6.49,6.49,0,0,0,315.25,80.66Z"/><path d="M311.57,51.63c3.2,2,5.1,4.54,5.1,7.25,0,6.75-11.71,12.22-26.16,12.22s-26.16-5.47-26.16-12.22c0-2.85,2.08-5.47,5.58-7.54"/><path class="cls-2" d="M311.57,51.63a12.81,12.81,0,0,1,4,3.22,6.67,6.67,0,0,1,1.51,5,8.41,8.41,0,0,1-2.49,4.72,16.75,16.75,0,0,1-4.24,3.13,34.5,34.5,0,0,1-9.8,3.41,54,54,0,0,1-10.3,1c-6.86-.08-13.89-1.22-20-4.63A16.78,16.78,0,0,1,266,64.18a7.93,7.93,0,0,1-2.13-4.91,6.91,6.91,0,0,1,1.93-4.87,13.75,13.75,0,0,1,4.1-3.06,15.53,15.53,0,0,0-3.69,3.39,6.19,6.19,0,0,0-1.37,4.48A6.88,6.88,0,0,0,267,63.29a16.55,16.55,0,0,0,3.94,2.8,35.49,35.49,0,0,0,9.38,3.08,51.52,51.52,0,0,0,9.92.92,54.11,54.11,0,0,0,9.93-.82,35.24,35.24,0,0,0,9.44-2.93,21.23,21.23,0,0,0,2.14-1.19,16.3,16.3,0,0,0,1.91-1.49,7.41,7.41,0,0,0,2.44-3.94,5.92,5.92,0,0,0-1-4.56A14.31,14.31,0,0,0,311.57,51.63Z"/><path class="cls-2" d="M272.93,67.53c-.23-2.91-.32-5.81-.49-8.72,0-.71-.06-1.45,0-2.22a13.23,13.23,0,0,1,.32-2.26,12.83,12.83,0,0,1,1.8-4.22,13.58,13.58,0,0,1,7.27-5.43l8.2-3,8.23-2.86,4.14-1.38,2.06-.69,1-.34.52-.17a6,6,0,0,1,.64-.15,4.12,4.12,0,0,1,4.38,2.2,4,4,0,0,1,.37,1.23c.06.44,0,.82.06,1.17l.05,2.17c0,2.91.12,5.81.09,8.72-.41-2.89-.69-5.78-1-8.68l-.22-2.17c-.05-.38-.06-.72-.12-1a2.64,2.64,0,0,0-.32-.82,2.76,2.76,0,0,0-3-1.3l-8.06,3-8.19,3-8.24,2.86c-.7.24-1.34.44-1.95.72a10.93,10.93,0,0,0-1.76,1A12.32,12.32,0,0,0,275.8,51a12.81,12.81,0,0,0-2.38,7.81C273.26,61.72,273.16,64.62,272.93,67.53Z"/><path class="cls-2" d="M270.12,66.26c-.22-2.53-.35-5.05-.49-7.58a35.38,35.38,0,0,1-.06-3.87,13,13,0,0,1,6.16-10,17.77,17.77,0,0,1,3.63-1.61L282.93,42c4.78-1.67,9.56-3.32,14.38-4.85L300.93,36l1.82-.56a7.35,7.35,0,0,1,1-.26,4.73,4.73,0,0,1,1.06,0,8.89,8.89,0,0,1,3.73,1.3,6.93,6.93,0,0,1,1.5,1.25,2.62,2.62,0,0,1,.71,1.77,2.52,2.52,0,0,0-.92-1.56,7,7,0,0,0-1.55-1,8.44,8.44,0,0,0-3.5-.81,4.4,4.4,0,0,0-.83.09c-.22.07-.51.18-.81.3l-1.76.71-3.54,1.39c-4.71,1.84-9.47,3.56-14.23,5.27L280,45.09a17.79,17.79,0,0,0-3.31,1.39A12,12,0,0,0,270.87,55a33.57,33.57,0,0,0-.26,3.71C270.47,61.21,270.34,63.73,270.12,66.26Z"/><path d="M280.52,57.69c9.46,3.17,18.09,2.94,25.81-1.06,5.86-3,3.14-8.5,1.49-11a1.93,1.93,0,0,0-2.31-.72L279.7,55.05a3.22,3.22,0,0,0-2,3v6.35a2.56,2.56,0,0,0,2.05,2.52c20.08,4.06,30.71-2.67,30.71-7.57V53"/><path class="cls-2" d="M280.52,57.69a38.44,38.44,0,0,0,15.22,1.56,29.31,29.31,0,0,0,7.35-1.88c2.29-1,4.82-2,5.66-4.11a5.09,5.09,0,0,0,.14-3.3,11.42,11.42,0,0,0-1.46-3.28c-.38-.61-.52-.81-.89-.92a1,1,0,0,0-.51,0,5.14,5.14,0,0,0-.75.28l-3.6,1.45-14.44,5.71L280,56a2.25,2.25,0,0,0-1.39,2.16l0,3.88v2.4a1.55,1.55,0,0,0,0,.31,1.72,1.72,0,0,0,.23.58,1.66,1.66,0,0,0,1,.71l1.86.37a64.74,64.74,0,0,0,7.59.94c5.06.27,10.28-.1,15-2a15.12,15.12,0,0,0,3.28-1.85,7.35,7.35,0,0,0,2.36-2.81,4.39,4.39,0,0,0,.31-1.82l.06-1.94.15-3.88.15,3.88.06,1.94a4.91,4.91,0,0,1-.23,2A8.06,8.06,0,0,1,308,64a16.19,16.19,0,0,1-3.35,2.15c-4.82,2.25-10.21,2.84-15.44,2.7a56.89,56.89,0,0,1-7.82-.77l-2-.36a3.44,3.44,0,0,1-2.62-2.65,2.82,2.82,0,0,1-.08-.65V64l0-1.94,0-3.88a4.22,4.22,0,0,1,2.58-4l7.23-2.86L301,45.71l3.62-1.39a7.65,7.65,0,0,1,1.08-.35,2.77,2.77,0,0,1,1.4.09,2.8,2.8,0,0,1,1.18.76,7.08,7.08,0,0,1,.65.94,13.33,13.33,0,0,1,1.6,3.82,8.53,8.53,0,0,1,.19,2.15,6.19,6.19,0,0,1-.54,2.15,7,7,0,0,1-3,3.07,25.59,25.59,0,0,1-3.64,1.64,30.18,30.18,0,0,1-7.73,1.63A36.72,36.72,0,0,1,280.52,57.69Z"/><ellipse class="cls-4" cx="210.89" cy="25.12" rx="10.09" ry="4.73"/><ellipse class="cls-4" cx="210.89" cy="32.59" rx="10.09" ry="4.73"/><ellipse class="cls-4" cx="210.89" cy="34.58" rx="14.57" ry="6.83"/><ellipse class="cls-4" cx="210.89" cy="45.42" rx="14.57" ry="6.83"/><path class="cls-5" d="M200.14,45.67s-12.72,5.84-25.58,3.93S98,29.72,77.05,34.19s26.21-18.85,81-11.76,43.36,8.21,43.36,8.21"/><path class="cls-6" d="M221.84,29.7s58-21,63.21-22.06a87.78,87.78,0,0,1,14.82-1.55L226.74,41.41"/><path class="cls-3" d="M203.89,53.93c.48,5.5.72,11,.89,16.51,0,.68.07,1.36,0,2.13a11.26,11.26,0,0,1-.35,2.23,12.13,12.13,0,0,1-2,4,11.5,11.5,0,0,1-1.52,1.7c-.56.49-1.1.88-1.65,1.32l-.82.65a1.54,1.54,0,0,0-.41.45,1.38,1.38,0,0,0-.15,1.1,1.27,1.27,0,0,0,.25.49,4.75,4.75,0,0,0,.59.6,7.79,7.79,0,0,0,1.49,1,16.8,16.8,0,0,0,3.57,1.45,29.06,29.06,0,0,0,7.86,1.06,29.63,29.63,0,0,0,4-.24,22,22,0,0,0,3.93-.82A13.16,13.16,0,0,0,223.25,86a4.61,4.61,0,0,0,2.21-3.2,4.09,4.09,0,0,1-.46,2,6.73,6.73,0,0,1-1.35,1.65A13,13,0,0,1,220,88.7a25,25,0,0,1-8.26,1.79,27.93,27.93,0,0,1-8.48-.75,17.5,17.5,0,0,1-4.09-1.59,10.17,10.17,0,0,1-1.9-1.3,8.72,8.72,0,0,1-.86-.86,3.45,3.45,0,0,1-.69-1.33,3.7,3.7,0,0,1,.42-2.87,4.15,4.15,0,0,1,1-1.06l.81-.61c.53-.42,1.11-.83,1.59-1.24a11.68,11.68,0,0,0,1.26-1.35,10,10,0,0,0,1.74-3.28,12.52,12.52,0,0,0,.47-3.81C203.17,64.93,203.42,59.43,203.89,53.93Z"/><path class="cls-3" d="M324.89,84.25a12.87,12.87,0,0,1-1.06,5.07,14.71,14.71,0,0,1-3.11,4.19,25,25,0,0,1-9.08,5.09,49,49,0,0,1-10.21,2.24c-1.73.26-3.47.32-5.21.48s-3.49.16-5.22.14c-13.88-.07-27.72-.55-41.58-.93-27.7-.84-55.39-2-83.08-2.91l-20.76-.74-10.38-.29L130,96.51c-.85,0-1.76-.05-2.63-.08l-1.33-.05-1.32-.12a44.46,44.46,0,0,1-10.41-2.17A27.82,27.82,0,0,1,105,88.82a16.26,16.26,0,0,1-1.92-2,12.86,12.86,0,0,1-.86-1.09l-.74-1.18a11.92,11.92,0,0,1-1.61-5.37l0-.71c0-.24,0-.47,0-.71l.16-1.41a11,11,0,0,1,.89-2.69,13,13,0,0,1,3.44-4.37,26.86,26.86,0,0,1,9.55-4.79,58.2,58.2,0,0,1,10.33-2,69.19,69.19,0,0,1,10.47-.39l10.39.42c13.85.65,27.69,1.21,41.54,1.93-13.86-.17-27.71-.5-41.56-.74l-10.39-.25a67.72,67.72,0,0,0-10.27.55,56.37,56.37,0,0,0-10,2.11,25.16,25.16,0,0,0-8.84,4.58,9.85,9.85,0,0,0-3.68,8.36,10,10,0,0,0,1.37,4.47l.65,1a11,11,0,0,0,.75.94,13.38,13.38,0,0,0,1.71,1.74A25.71,25.71,0,0,0,115,92.06a41.53,41.53,0,0,0,9.9,2l1.26.12,1.27,0c.86,0,1.68.06,2.56.06l5.21,0,10.4.24,20.79.64L208,96.9c13.85.6,27.69,1.11,41.53,1.78s27.69,1.29,41.52,1.6c1.73.07,3.44,0,5.17,0s3.44-.13,5.15-.34a48.32,48.32,0,0,0,10.11-2,24.7,24.7,0,0,0,9-4.75,14.4,14.4,0,0,0,3.19-4A12.77,12.77,0,0,0,324.89,84.25Z"/><polygon class="cls-7" points="286.53 52.81 286.53 23.12 277.09 32.56 269.32 24.79 292.02 2.08 314.73 24.79 306.96 32.56 297.52 23.11 297.52 52.81 286.53 52.81"/><path d="M292,4.16l20.62,20.63L307,30.48,296.05,19.56V51.34H288V19.56L277.09,30.48l-5.69-5.69L292,4.16M292,0l-2.09,2.08L269.32,22.71l-2.08,2.08,2.08,2.08L275,32.56l2.08,2.08,2.08-2.08,5.89-5.89V54.28H299V26.67l5.89,5.89L307,34.64,309,32.56l5.69-5.69,2.08-2.08-2.08-2.08L294.11,2.08,292,0Z"/><path class="cls-8" d="M203.34,44.47s33.69,57,46.44,59.83S263.43,107,263.43,107s-23.21-29.91-24-42.15S221.1,45.35,221.1,45.35"/><path class="cls-7" d="M321.84,135.37l-.32,0a1.82,1.82,0,0,1-1.5-1.93c.09-1.26.14-7.78.14-14.29-7.44,4.32-17.63,6.76-28.56,6.76-22.34,0-39.84-9.91-39.84-22.55V82.6a1.83,1.83,0,1,1,3.66,0c0,10.24,16.57,18.9,36.18,18.9,11,0,21.56-2.74,28.45-7.35-.07-8.2-.14-14.58-.14-14.58a1.82,1.82,0,0,1,1.17-1.73,1.88,1.88,0,0,1,.66-.12,1.84,1.84,0,0,1,1.37.61l15.75,17.82a1.82,1.82,0,0,1,.29,2c-4.89,10.79-14.45,32.18-15.55,35.94A1.83,1.83,0,0,1,321.84,135.37Z"/><path d="M321.74,79.55l15.75,17.81s-14.22,31.31-15.65,36.18c.12-1.7.16-11.41.15-17.79-6.93,5-17.95,8.3-30.39,8.3-21,0-38-9.28-38-20.72V82.6c0,11.45,17,20.73,38,20.73,12.37,0,23.35-3.24,30.29-8.23-.07-8.66-.15-15.55-.15-15.55m0-3.66a3.8,3.8,0,0,0-1.32.24,3.67,3.67,0,0,0-2.34,3.46s.07,5.86.13,13.57c-6.6,4.1-16.37,6.51-26.61,6.51-20.55,0-34.35-8.83-34.35-17.07a3.66,3.66,0,0,0-7.32,0v20.73c0,13.67,18.3,24.38,41.67,24.38,10,0,19.35-2,26.73-5.55,0,5.38-.07,10.12-.14,11.13a3.67,3.67,0,0,0,3,3.85,3.57,3.57,0,0,0,.65.06,3.65,3.65,0,0,0,3.5-2.63c1-3.39,9.8-23.2,15.47-35.7a3.65,3.65,0,0,0-.59-3.93L324.48,77.12a3.65,3.65,0,0,0-2.74-1.23Z"/></g></g></svg>