<svg xmlns="http://www.w3.org/2000/svg" viewBox="0 0 73.43 73.43"><defs><style>.cls-1{fill:#fff;}</style></defs><g id="Layer_2" data-name="Layer 2"><g id="Layer_1-2" data-name="Layer 1"><path class="cls-1" d="M36.72,1.44A35.28,35.28,0,1,1,1.44,36.72,35.31,35.31,0,0,1,36.72,1.44M15,26.77h-3.4l.11,1.54c0,.32,0,.63,0,.93A18.11,18.11,0,0,0,12,31.52a17.52,17.52,0,0,0,.91,3.33A3.92,3.92,0,0,0,14.82,37L15,38.37c0,.21,0,.43,0,.65a13.16,13.16,0,0,0,.2,1.72l.1.52c.59,2.94,1.19,6,1.88,9a12.74,12.74,0,0,0,2.53,5.48,6.31,6.31,0,0,0,5,2.49h0a19.54,19.54,0,0,0,3-.32c1,2.45,2.53,6.31,2.55,6.35l.37.89H47a4.7,4.7,0,0,0,4.38-6.42c-.68-1.74-1.42-3.62-2-4.94a6.75,6.75,0,0,1,1-7c.48-.63,1-1.22,1.58-1.85l.56-.62c5.18-5.87,6.95-12.61,5.26-20.05A21.14,21.14,0,0,0,37.2,7.66,22.51,22.51,0,0,0,33.37,8c-7.85,1.39-13.45,5.88-16.63,13.36a25.74,25.74,0,0,0-1,2.89c-.12.44-.25.88-.39,1.34L15,26.77M36.72,0A36.72,36.72,0,1,0,73.43,36.72,36.72,36.72,0,0,0,36.72,0Zm-20,26c.46-1.45.76-2.83,1.31-4.1C21,15,26.2,10.72,33.62,9.41a20.89,20.89,0,0,1,3.58-.32A19.69,19.69,0,0,1,56.48,24.54a20.18,20.18,0,0,1-4.93,18.77c-.75.84-1.52,1.66-2.2,2.56a8.12,8.12,0,0,0-1.21,8.42l1.94,4.93a3.27,3.27,0,0,1-3,4.47H31.54s-1.85-4.53-2.77-6.9a.66.66,0,0,0-.62-.43H28a22.88,22.88,0,0,1-3.39.4h0a4.94,4.94,0,0,1-3.81-2,11.46,11.46,0,0,1-2.22-4.89c-.72-3.13-1.34-6.28-2-9.44a20.85,20.85,0,0,1-.22-2.22l4-.25c-.3.79-.61,1.59-.91,2.39a1.73,1.73,0,0,0,.59,2,.73.73,0,0,0,.36.08h6.15c.32,0,.44-.1.45-.44.05-1.43.06-1.43-1.35-1.43H22.22c-.21,0-.43,0-.76,0C22.25,38.65,23,36.87,23.8,35a2.2,2.2,0,0,1,.29.46,4.16,4.16,0,0,0,3.82,2.65c.61,0,1.23.07,1.84.07a12.16,12.16,0,0,0,3.64-.49,7.65,7.65,0,0,0,2-1q5.27-4,10.49-8.07a1.13,1.13,0,0,1,.74-.27l.28,0a9.06,9.06,0,0,1,6.43,4,2.47,2.47,0,0,0,.28.33l1.67-1.24a11,11,0,0,0-4-3.83A13.37,13.37,0,0,0,44.85,26H16.76Zm.31,10h-.5a2.41,2.41,0,0,1-2.31-1.61,17.25,17.25,0,0,1-.85-3.07,30.1,30.1,0,0,1-.24-3.06H35.42a16.19,16.19,0,0,1-1,6,2.34,2.34,0,0,1-1.75,1.45,15.78,15.78,0,0,1-3.12.35,10.81,10.81,0,0,1-2-.19,1.66,1.66,0,0,1-1.18-.81,9.14,9.14,0,0,1-1.24-3.86,1.55,1.55,0,0,1,0-.22c-.09-.81-.09-.81-.88-.81h-.13c-1.18,0-1.13.05-1.41,1.26a20.84,20.84,0,0,1-1,3.07,2.13,2.13,0,0,1-1.88,1.34c-.89.07-1.79.13-2.68.13Z"/></g></g></svg>