<svg xmlns="http://www.w3.org/2000/svg" viewBox="0 0 297.44 158.91"><defs><style>.cls-1{fill:red;}.cls-1,.cls-2,.cls-3{stroke:#fff;stroke-miterlimit:10;stroke-width:3px;}.cls-2{fill:#333;}</style></defs><g id="Layer_2" data-name="Layer 2"><g id="Layer_1-2" data-name="Layer 1"><path class="cls-1" d="M248.65,6.47H181.2a5,5,0,0,1-3.35-1.28l-2.66-2.41a5.05,5.05,0,0,0-3.35-1.28H125.6a5,5,0,0,0-3.34,1.28l-2.67,2.41a5,5,0,0,1-3.35,1.28H48.8a9.51,9.51,0,0,0-8.9,12.85L55.79,61.55a9.52,9.52,0,0,0,8.89,6.16h45.67a4.75,4.75,0,0,1,4.45,3.07l2.77,7.36h62.31l2.76-7.36a4.75,4.75,0,0,1,4.45-3.07h45.67a9.5,9.5,0,0,0,8.89-6.16l15.89-42.23A9.5,9.5,0,0,0,248.65,6.47Z"/><path class="cls-2" d="M284.53,157.41H12.92a11.4,11.4,0,0,1-9.74-17.33l27-44.25a11.41,11.41,0,0,1,4.63-4.27l13.62-6.82a11.33,11.33,0,0,1,5.11-1.21H244a11.29,11.29,0,0,1,5.1,1.21l13.63,6.82a11.38,11.38,0,0,1,4.62,4.27l27,44.25A11.4,11.4,0,0,1,284.53,157.41Z"/><path class="cls-3" d="M254.25,137.88H43.19a9.49,9.49,0,0,1-8.62-13.48L50.2,90.54A9.49,9.49,0,0,1,58.82,85h179.8a9.49,9.49,0,0,1,8.62,5.52l15.64,33.86A9.5,9.5,0,0,1,254.25,137.88Z"/><path class="cls-3" d="M240.37,137.88H57.08a8.24,8.24,0,0,1-7.49-11.7L63.16,96.76A8.25,8.25,0,0,1,70.65,92H226.79a8.25,8.25,0,0,1,7.49,4.79l13.58,29.42A8.25,8.25,0,0,1,240.37,137.88Z"/><path class="cls-1" d="M240.29,15H57.15a4.75,4.75,0,0,0-4.47,6.35l12.9,36.1a4.76,4.76,0,0,0,4.48,3.15H227.39a4.76,4.76,0,0,0,4.47-3.15l12.91-36.1A4.76,4.76,0,0,0,240.29,15Z"/></g></g></svg>