<svg xmlns="http://www.w3.org/2000/svg" viewBox="0 0 73.43 73.43"><defs><style>.cls-1{fill:#29abe2;}.cls-2{fill:#fff;}</style></defs><g id="Layer_2" data-name="Layer 2"><g id="Layer_1-2" data-name="Layer 1"><path class="cls-1" d="M36.72,72.71a36,36,0,1,1,36-36A36,36,0,0,1,36.72,72.71Zm-1.17-13,.47.44,2.63,1.19c2.4,1.08,4.79,2.15,7.17,3.27a2.16,2.16,0,0,0,.89.24c.9,0,1.2-.88,1.31-1.2.31-.93.6-1.86.9-2.79a58.42,58.42,0,0,1,2.27-6.34Q55,45.92,59,37.37l4.07-9a3.24,3.24,0,0,0,.19-2.53,2.69,2.69,0,0,0-1.49-1.47,2.78,2.78,0,0,0-1.11-.24,2.92,2.92,0,0,0-2.61,2c-.46,1-.91,2-1.37,3C56,30.5,55.42,31.86,54.8,33.2a4.08,4.08,0,0,0-.17.42,2.91,2.91,0,0,1-.24.53l-.14-.07c-.09-.11.07-.39.15-.54s.15-.28.21-.41c1-2.22,2-4.43,3-6.65.75-1.67,1.51-3.35,2.26-5a2.81,2.81,0,0,0-2.39-4.21,2.94,2.94,0,0,0-2.62,1.9c-1.18,2.6-2.36,5.21-3.53,7.81l-1.86,4.13a4.32,4.32,0,0,1-.3.61.33.33,0,0,1-.1.11L49,31.63a3.9,3.9,0,0,1,.2-.47l1.68-3.74Q53,22.78,55,18.14a2.78,2.78,0,0,0-1.26-3.93A2.91,2.91,0,0,0,52.59,14,2.86,2.86,0,0,0,50,15.78c-1,2.21-2,4.42-3,6.63-.79,1.74-1.57,3.49-2.36,5.23a1.51,1.51,0,0,0,.13,1.66l-.2-.18a3.36,3.36,0,0,0-1.21-.68,1.34,1.34,0,0,0,1.09-.94c1.54-3.41,3-6.73,4.53-10a2.76,2.76,0,0,0,.24-1.85A2.66,2.66,0,0,0,47,13.46l-.45,0A2.7,2.7,0,0,0,44,15.23L42.5,18.42c-1.07,2.38-2.14,4.77-3.26,7.13a6.94,6.94,0,0,0-.68,4.2l.22,1.43,1-1a6.73,6.73,0,0,1,1.39-1.25,7.19,7.19,0,0,0-2.73,3.67V26.47q0-6,0-12a2.82,2.82,0,0,0-2.75-3.07h0a2.88,2.88,0,0,0-2.81,3c0,.27,0,.54,0,.82V26.89c0,.33,0,.42-.06.43l-.13,0s0-.11,0-.37V22.77c0-3.36,0-6.73,0-10.1a3.13,3.13,0,0,0-1.12-2.73,2.66,2.66,0,0,0-1.64-.59,2.71,2.71,0,0,0-1.16.28,2.83,2.83,0,0,0-1.63,2.79q0,6.9,0,13.79c0,.15,0,.3,0,.46a3.84,3.84,0,0,1,0,.58H27a.77.77,0,0,1-.2,0,5.51,5.51,0,0,1,0-.6c0-.16,0-.33,0-.47,0-2.66,0-5.31,0-8V13.46a2.78,2.78,0,0,0-2.27-3.05,4.22,4.22,0,0,0-.49,0,2.82,2.82,0,0,0-2.72,3.05q0,4.14,0,8.28v5a2.4,2.4,0,0,1-.05.64l-.19,0V18.59c0-2-1-3.17-2.69-3.2h0c-1.74,0-2.78,1.2-2.78,3.13v9.57q0,9.56,0,19.12a1.76,1.76,0,0,0,.41,1.28,1.34,1.34,0,0,0,.63.34,1.43,1.43,0,0,0-1.12,1.43c-.24,2.32-.45,4.4-.74,6.5a1.6,1.6,0,0,0,.27,1.34,1.58,1.58,0,0,0,1.26.43c1.78,0,3.48,0,5.19,0H32.92c1.76,0,3.52,0,5.28,0h0a1.48,1.48,0,0,0,1.22-.42,1.21,1.21,0,0,0,.26-.87c.07.43.22,1.31.22,1.32-.58,0-1,0-1.51,0H35.76Zm3.9-4c-.3-1.77-.54-3.49-.76-5h0c.18,1.06.33,2.13.49,3.19Zm-.83-5.54a1.46,1.46,0,0,0-1.15-1.36,1.34,1.34,0,0,0,.59-.33,1.78,1.78,0,0,0,.41-1.33l0-5.28.75.3.48-.4-.57.92-.13.18a2.09,2.09,0,0,0-.47,1.31c0,.75,0,1.51,0,2.27A27.44,27.44,0,0,0,38.62,50.18Zm4.79-14.36c.68-1.11,1.35-2.23,2-3.34l.06-.1a7.77,7.77,0,0,1-.52.95Z"/><path class="cls-2" d="M36.72,1.44A35.28,35.28,0,1,1,1.44,36.72,35.31,35.31,0,0,1,36.72,1.44m-10,9.35a3.3,3.3,0,0,0-2-1.09,4,4,0,0,0-.6,0,3.51,3.51,0,0,0-3.44,3.77v2.09a3.29,3.29,0,0,0-2.22-.84h-.08c-2.08,0-3.43,1.51-3.43,3.85v9.65q0,9.53,0,19a2.54,2.54,0,0,0,.46,1.6,2.49,2.49,0,0,0-.54,1.38c-.23,2.31-.44,4.38-.73,6.48a2.31,2.31,0,0,0,.43,1.9,2.33,2.33,0,0,0,1.81.68h.08c1.7,0,3.41,0,5.11,0H34.9l-.2,1.1,1,.46L38.34,62c2.36,1.06,4.8,2.16,7.18,3.27a2.74,2.74,0,0,0,1.19.31,2.09,2.09,0,0,0,2-1.69c.31-.93.61-1.86.9-2.8a56.36,56.36,0,0,1,2.25-6.26c2.57-5.72,5.21-11.53,7.77-17.14q2-4.47,4.07-8.95a4,4,0,0,0,.2-3.09A3.35,3.35,0,0,0,62,23.75a3.48,3.48,0,0,0-1.39-.3,2.94,2.94,0,0,0-.94.15c.27-.62.55-1.24.83-1.85a3.53,3.53,0,0,0-3-5.23,3.24,3.24,0,0,0-1.38.31,3.31,3.31,0,0,0-2-3.27,3.35,3.35,0,0,0-4.3,1.26,3.28,3.28,0,0,0-2.7-2.07,3.56,3.56,0,0,0-.55,0,3.45,3.45,0,0,0-3.21,2.22l-1.44,3.19C41,20.06,40.08,22,39.17,24c0-3.2,0-6.39,0-9.59a3.55,3.55,0,0,0-3.51-3.79,3.31,3.31,0,0,0-2.34.93A3.38,3.38,0,0,0,32,9.37a3.43,3.43,0,0,0-2.08-.74,3.6,3.6,0,0,0-3.22,2.16M36.72,0A36.72,36.72,0,1,0,73.43,36.72,36.72,36.72,0,0,0,36.72,0ZM27,28c1.12,0,.79-1.08.8-1.76q0-6.9,0-13.8a2.13,2.13,0,0,1,1.22-2.14,1.94,1.94,0,0,1,.85-.21,2,2,0,0,1,1.21.44A2.47,2.47,0,0,1,32,12.67c0,4.49,0,9,0,13.47v.77c0,.54.07,1.08.76,1.1h.05c.7,0,.81-.53.81-1.12,0-3.8,0-7.6,0-11.39,0-.37,0-.73,0-1.1a2.15,2.15,0,0,1,2-2.33h0a2.11,2.11,0,0,1,2,2.35q0,8.22,0,16.43c0,5.44,0,10.88,0,16.32,0,.82-.21,1-1,1h0q-5.25,0-10.5,0l-8.88,0h0c-.74,0-1-.18-1-1,0-9.56,0-19.12,0-28.69,0-1.54.74-2.41,2-2.41h.05c1.27,0,2,.91,2,2.49,0,2.7,0,5.4,0,8.1,0,.6,0,1.28.79,1.3h.05c.84,0,.84-.7.84-1.33,0-4.41,0-8.83,0-13.25a2.09,2.09,0,0,1,2-2.33l.37,0a2.07,2.07,0,0,1,1.67,2.34c0,4.23,0,8.47,0,12.7,0,.7-.34,1.78.81,1.81Zm12.24,1.66a6.28,6.28,0,0,1,.62-3.79C41.51,22.43,43,19,44.6,15.52a2,2,0,0,1,1.9-1.37l.35,0a2,2,0,0,1,1.71,1.61,2,2,0,0,1-.2,1.38q-2.23,5-4.48,10c-.13.29-.19.58-.64.63-2.39.25-2.38.26-4,1.9ZM40,59.28c.56,0,.8-.13.67-.89-.46-2.59-.8-5.19-1.22-7.79a53.28,53.28,0,0,1-.18-6.44,1.86,1.86,0,0,1,.49-1.08c1.95-3.13,3.91-6.24,5.86-9.37,1.2-1.92,1.18-3-.15-4.8a.8.8,0,0,1-.09-1c1.79-4,3.56-7.91,5.36-11.86a2,2,0,0,1,2.77-1.21,2.06,2.06,0,0,1,.91,3q-2.86,6.4-5.74,12.77a8.24,8.24,0,0,0-.35.81.76.76,0,0,0,.44,1,.79.79,0,0,0,.37.1.81.81,0,0,0,.66-.43,5.52,5.52,0,0,0,.43-.88c1.77-3.92,3.53-7.85,5.32-11.76a2.21,2.21,0,0,1,2-1.48,2.11,2.11,0,0,1,1,.26c1,.55,1.34,1.64.76,2.94-1.74,3.89-3.51,7.78-5.24,11.67-.27.61-1,1.42,0,1.9a1.27,1.27,0,0,0,.5.14c.63,0,.78-.85,1-1.37,1.09-2.34,2.13-4.71,3.21-7.07a2.25,2.25,0,0,1,2-1.54,2.14,2.14,0,0,1,.83.18c1.18.51,1.55,1.67.93,3-4,8.7-7.93,17.38-11.85,26.1-1.33,3-2.15,6.11-3.19,9.18-.17.48-.32.72-.63.72a1.5,1.5,0,0,1-.58-.17c-3.26-1.53-6.54-3-9.81-4.46,0-.07,0-.14,0-.21h2c.47,0,.94,0,1.41,0ZM39.1,41.37l-.2-.08A61.76,61.76,0,0,1,39,33.47a6.25,6.25,0,0,1,2.72-4.08,1.7,1.7,0,0,1,1-.33,2.23,2.23,0,0,1,1.44.61,1.9,1.9,0,0,1,.66,2.44C43,35.24,41,38.29,39.1,41.37ZM16.35,57.82c-.72,0-.92-.18-.82-1,.3-2.17.52-4.35.74-6.52.07-.63.3-.85.95-.85h0c3.31,0,6.62,0,9.93,0s6.52,0,9.78,0h0c.66,0,.87.24,1,.86.3,2.2.62,4.41,1,6.6.13.69,0,.86-.68.86h0l-5.3,0H21.54c-1.71,0-3.42,0-5.13,0Z"/></g></g></svg>