<svg xmlns="http://www.w3.org/2000/svg" viewBox="0 0 73.43 73.43"><defs><style>.cls-1{fill:#4e9ec9;}.cls-2{fill:#fff;}.cls-3{fill:#29abe2;}</style></defs><g id="Layer_2" data-name="Layer 2"><g id="Layer_1-2" data-name="Layer 1"><path class="cls-1" d="M47.62,40.17a5.29,5.29,0,0,0,.54-.13,4.5,4.5,0,0,0-.58-8.74v0a4.53,4.53,0,0,1,3.05,6.89,4.19,4.19,0,0,1-3,2Z"/><path class="cls-2" d="M46.86,30.46c0,.37,0,.68,0,1s.12.5.47.55A3.78,3.78,0,0,1,48,39.35a9.35,9.35,0,0,1-1.05.23V41a5.26,5.26,0,0,0,4.4-8,5.17,5.17,0,0,0-4.44-2.56Z"/><path class="cls-1" d="M21.35,47.24c0-.13,0-.26,0-.39h5.81v.39h-5.8Z"/><path class="cls-2" d="M27.87,46.13H20.63a14.37,14.37,0,0,0,0,1.48A.52.52,0,0,0,21,48h6.52c.12,0,.34-.15.34-.24,0-.52,0-1,0-1.59Z"/><path class="cls-1" d="M18.31,32.6a.93.93,0,0,1-.7-.3,1,1,0,0,1-.25-.52h1.95a.9.9,0,0,1-.24.52,1,1,0,0,1-.74.31Z"/><path class="cls-2" d="M19.66,31.05H17c-.27,0-.37.12-.39.41a1.69,1.69,0,0,0,1.66,1.86h0a1.7,1.7,0,0,0,1.72-1.83c0-.29-.09-.45-.39-.45Z"/><path class="cls-1" d="M29.64,32.62a1.08,1.08,0,0,1-.5-.14.88.88,0,0,1-.5-.69l1.21,0h.75a.82.82,0,0,1-.38.63A1,1,0,0,1,29.64,32.62Z"/><path class="cls-2" d="M29.86,31.06c-.54,0-1.08,0-1.61,0-.11,0-.3.23-.32.37a1.58,1.58,0,0,0,.85,1.65A1.65,1.65,0,0,0,30.65,33a1.7,1.7,0,0,0,.6-1.93Z"/><path class="cls-3" d="M36.72,72.71a36,36,0,1,1,36-36A36,36,0,0,1,36.72,72.71Zm-8.6-15.63C29,59.47,30.88,64,30.88,64l.18.44H47A4,4,0,0,0,50.75,59L48.81,54a7.39,7.39,0,0,1,1.11-7.72c.49-.64,1-1.27,1.6-1.88l.57-.63a21,21,0,0,0,5.1-19.41,20.44,20.44,0,0,0-20-16,21,21,0,0,0-3.7.33c-7.6,1.34-13,5.69-16.1,12.93a25,25,0,0,0-.93,2.81q-.18.66-.39,1.35l-.3.94H44.85a12.63,12.63,0,0,1,6.09,1.44,10,10,0,0,1,3.36,3l-.55.4a10,10,0,0,0-6.73-4l-.41,0a1.84,1.84,0,0,0-1.17.41c-3.49,2.7-7,5.4-10.48,8.07a7.45,7.45,0,0,1-1.78.94,11.83,11.83,0,0,1-3.43.45c-.59,0-1.19,0-1.79-.07a3.43,3.43,0,0,1-3.2-2.21,2.61,2.61,0,0,0-.24-.41l-.85-1.3L20.4,41.18l1.32.07.5,0h4.13c0,.11,0,.26,0,.42H20.46a1,1,0,0,1-.28-1.06l1.31-3.43-5.89.35.06.74c0,.23,0,.45.05.68a13.16,13.16,0,0,0,.18,1.62l.13.64c.58,2.9,1.17,5.9,1.85,8.83a12.06,12.06,0,0,0,2.38,5.18,5.58,5.58,0,0,0,4.35,2.23,21.89,21.89,0,0,0,3.22-.35Zm-3.77-26c0,.11,0,.17,0,.24a9.59,9.59,0,0,0,1.34,4.14,2.41,2.41,0,0,0,1.65,1.14,11.91,11.91,0,0,0,2.17.2,16,16,0,0,0,3.27-.37,3,3,0,0,0,2.26-1.85,15.8,15.8,0,0,0,1-5.83l.07-1.23H12.39l.06.77c0,.32,0,.64.05.95a20.48,20.48,0,0,0,.2,2.19,18.15,18.15,0,0,0,.88,3.2,3.17,3.17,0,0,0,3,2.07h.51c1,0,2-.07,2.75-.13a2.85,2.85,0,0,0,2.49-1.79,22.35,22.35,0,0,0,1.05-3.18l0-.18c.05-.18.09-.39.13-.51h.82C24.34,30.93,24.35,31,24.35,31.05Z"/><path class="cls-2" d="M36.72,1.44A35.28,35.28,0,1,1,1.44,36.72,35.31,35.31,0,0,1,36.72,1.44M15,26.77h-3.4l.11,1.54c0,.32,0,.63,0,.93A18.11,18.11,0,0,0,12,31.52a17.52,17.52,0,0,0,.91,3.33A3.92,3.92,0,0,0,14.82,37L15,38.37c0,.21,0,.43,0,.65a13.16,13.16,0,0,0,.2,1.72l.1.52c.59,2.94,1.19,6,1.88,9a12.74,12.74,0,0,0,2.53,5.48,6.31,6.31,0,0,0,5,2.49h0a19.54,19.54,0,0,0,3-.32c1,2.45,2.53,6.31,2.55,6.35l.37.89H47a4.7,4.7,0,0,0,4.38-6.42c-.68-1.74-1.42-3.62-2-4.94a6.75,6.75,0,0,1,1-7c.48-.63,1-1.22,1.58-1.85l.56-.62c5.18-5.87,6.95-12.61,5.26-20.05A21.14,21.14,0,0,0,37.2,7.66,22.51,22.51,0,0,0,33.37,8c-7.85,1.39-13.45,5.88-16.63,13.36a25.74,25.74,0,0,0-1,2.89c-.12.44-.25.88-.39,1.34L15,26.77M36.72,0A36.72,36.72,0,1,0,73.43,36.72,36.72,36.72,0,0,0,36.72,0Zm-20,26c.46-1.45.76-2.83,1.31-4.1C21,15,26.2,10.72,33.62,9.41a20.89,20.89,0,0,1,3.58-.32A19.69,19.69,0,0,1,56.48,24.54a20.18,20.18,0,0,1-4.93,18.77c-.75.84-1.52,1.66-2.2,2.56a8.12,8.12,0,0,0-1.21,8.42l1.94,4.93a3.27,3.27,0,0,1-3,4.47H31.54s-1.85-4.53-2.77-6.9a.66.66,0,0,0-.62-.43H28a22.88,22.88,0,0,1-3.39.4h0a4.94,4.94,0,0,1-3.81-2,11.46,11.46,0,0,1-2.22-4.89c-.72-3.13-1.34-6.28-2-9.44a20.85,20.85,0,0,1-.22-2.22l4-.25c-.3.79-.61,1.59-.91,2.39a1.73,1.73,0,0,0,.59,2,.73.73,0,0,0,.36.08h6.15c.32,0,.44-.1.45-.44.05-1.43.06-1.43-1.35-1.43H22.22c-.21,0-.43,0-.76,0C22.25,38.65,23,36.87,23.8,35a2.2,2.2,0,0,1,.29.46,4.16,4.16,0,0,0,3.82,2.65c.61,0,1.23.07,1.84.07a12.16,12.16,0,0,0,3.64-.49,7.65,7.65,0,0,0,2-1q5.27-4,10.49-8.07a1.13,1.13,0,0,1,.74-.27l.28,0a9.06,9.06,0,0,1,6.43,4,2.47,2.47,0,0,0,.28.33l1.67-1.24a11,11,0,0,0-4-3.83A13.37,13.37,0,0,0,44.85,26H16.76Zm.31,10h-.5a2.41,2.41,0,0,1-2.31-1.61,17.25,17.25,0,0,1-.85-3.07,30.1,30.1,0,0,1-.24-3.06H35.42a16.19,16.19,0,0,1-1,6,2.34,2.34,0,0,1-1.75,1.45,15.78,15.78,0,0,1-3.12.35,10.81,10.81,0,0,1-2-.19,1.66,1.66,0,0,1-1.18-.81,9.14,9.14,0,0,1-1.24-3.86,1.55,1.55,0,0,1,0-.22c-.09-.81-.09-.81-.88-.81h-.13c-1.18,0-1.13.05-1.41,1.26a20.84,20.84,0,0,1-1,3.07,2.13,2.13,0,0,1-1.88,1.34c-.89.07-1.79.13-2.68.13Z"/></g></g></svg>