<svg xmlns="http://www.w3.org/2000/svg" viewBox="0 0 297.44 151.1"><defs><style>.cls-1{fill:#333;}.cls-1,.cls-2,.cls-3,.cls-4{stroke:#fff;stroke-miterlimit:10;stroke-width:3px;}.cls-3{fill:red;}.cls-4{fill:none;}.cls-5{fill:#fff;}</style></defs><g id="Layer_2" data-name="Layer 2"><g id="Layer_1-2" data-name="Layer 1"><path class="cls-1" d="M284.53,149.6H12.92a11.4,11.4,0,0,1-9.74-17.33L30.14,88a11.41,11.41,0,0,1,4.63-4.27l13.62-6.82a11.33,11.33,0,0,1,5.11-1.21H244a11.29,11.29,0,0,1,5.1,1.21l13.63,6.82A11.38,11.38,0,0,1,267.3,88l27,44.25A11.4,11.4,0,0,1,284.53,149.6Z"/><path class="cls-2" d="M254.25,130.07H43.19a9.49,9.49,0,0,1-8.62-13.48L50.2,82.72a9.49,9.49,0,0,1,8.62-5.51h179.8a9.49,9.49,0,0,1,8.62,5.51l15.64,33.87A9.5,9.5,0,0,1,254.25,130.07Z"/><path class="cls-2" d="M240.37,130.07H57.08a8.24,8.24,0,0,1-7.49-11.7L63.16,89a8.25,8.25,0,0,1,7.49-4.79H226.79A8.25,8.25,0,0,1,234.28,89l13.58,29.42A8.25,8.25,0,0,1,240.37,130.07Z"/><path class="cls-3" d="M239.73,65V82.36c0,4.66-3.37,8.44-7.52,8.44H65.6c-4.15,0-7.52-3.78-7.52-8.44V65"/><path class="cls-3" d="M127.35,29.05h97.56c5.16,0,9.55,2.42,10.31,5.7l8.87,25.67c.82,3.49-3.39,6.63-8.88,6.63h-173c-5.5,0-9.71-3.14-8.89-6.63l8.87-25.67c.77-3.28,5.15-5.7,10.31-5.7h54.82Z"/><path class="cls-3" d="M192.48,21.56v5c0,7.68-8.84,13.91-19.75,13.91H124.38c-10.91,0-19.75-6.23-19.75-13.91v-5"/><path class="cls-4" d="M184.55,37.88c0,6.3-7.25,11.41-16.18,11.41H128.74c-8.94,0-16.18-5.11-16.18-11.41"/><path class="cls-3" d="M172.73,34.33c10.91,0,19.75-6.22,19.75-13.91V15.48A2,2,0,0,0,191,13.7L181.22,10a2.07,2.07,0,0,1-1.5-1.78V6c0-2.51-2.88-4.54-6.43-4.54H159.08c-1,0-1.82.57-1.82,1.28v7.58c0,2.76-3.17,5-7.09,5h-4.08c-3.92,0-7.09-2.23-7.09-5V2.78c0-.71-.81-1.28-1.82-1.28H123.82c-3.55,0-6.44,2-6.44,4.54V8.19a2.05,2.05,0,0,1-1.5,1.78l-9.75,3.73a2,2,0,0,0-1.5,1.78v4.94c0,7.69,8.84,13.91,19.75,13.91h48.35c10.91,0,19.75-6.22,19.75-13.91V15.48A2,2,0,0,0,191,13.7l-6.76-2.58"/><polygon class="cls-5" points="109.54 74.23 122.4 61.37 139.63 78.6 139.63 25.42 157.81 25.42 157.81 78.6 175.04 61.37 187.9 74.23 148.72 113.41 109.54 74.23"/><path d="M155.81,27.42v56L175,64.2l10,10-36.35,36.35L112.37,74.23l10-10,19.23,19.23v-56h14.18m4-4H137.63V73.77l-12.4-12.4-2.83-2.83-2.83,2.83-10,10-2.83,2.83,2.83,2.82,36.35,36.36,2.83,2.82,2.83-2.82L187.9,77.05l2.83-2.82L187.9,71.4l-10-10L175,58.54l-2.82,2.83-12.41,12.4V23.42Z"/></g></g></svg>