<svg width="34" height="44" viewBox="0 0 34 44" fill="none" xmlns="http://www.w3.org/2000/svg">
<path d="M32.3967 27.9835V3.08827C32.3967 1.3846 31.0152 0 29.3198 0H4.68025C2.98476 0 1.60326 1.38657 1.60326 3.08827V27.9835H0V38.5817C0 41.5696 2.42156 43.998 5.39651 43.998H28.6035C31.5804 43.998 34 41.5676 34 38.5817V27.9835H32.3967ZM5.13552 3.54521H28.8645V27.9835H5.13552V3.54521ZM30.4677 38.5817C30.4677 39.6138 29.6318 40.4528 28.6035 40.4528H5.39651C4.36823 40.4528 3.53226 39.6138 3.53226 38.5817V31.5287H30.4677V38.5817Z" fill="white"/>
</svg>
