<svg width="323" height="440" viewBox="0 0 323 440" fill="none" xmlns="http://www.w3.org/2000/svg">
<path d="M159.465 104.389H132.855V240.952H159.465V104.389Z" fill="#333333"/>
<path d="M190.144 104.389H163.535V240.952H190.144V104.389Z" fill="#333333"/>
<path d="M313.151 298.996H9.85352V9.8517C9.85352 4.41945 14.272 0 19.7031 0H303.299C308.73 0 313.148 4.41945 313.148 9.8517V298.996H313.151ZM12.8229 296.026H310.182V9.8517C310.182 6.05596 307.094 2.97006 303.302 2.97006H19.7031C15.9082 2.97006 12.8229 6.05893 12.8229 9.8517V296.026Z" fill="#555555"/>
<path d="M291.616 244.317H31.3835C29.7473 244.317 28.4141 245.651 28.4141 247.287V277.986C28.4141 279.622 29.7473 280.956 31.3835 280.956H49.1941V292.008H273.805V280.956H291.616C293.252 280.956 294.585 279.622 294.585 277.986V247.287C294.585 245.651 293.255 244.317 291.616 244.317ZM291.616 277.986H31.3835V247.287H291.616V277.986Z" fill="#28B358"/>
<path d="M143.1 30.0123H159.186V31.7973H165.733V30.0123H176.56H181.507H194.961C195.433 30.0123 195.876 29.8044 196.179 29.442C196.482 29.0797 196.603 28.6045 196.52 28.1441L195.068 19.9883C194.813 18.6013 193.702 17.538 192.298 17.342L180.408 15.8332C179.805 15.0758 178.876 14.5977 177.851 14.5977H146.759C145.182 14.5977 143.831 15.7233 143.546 17.2737L141.544 28.1382C141.458 28.6015 141.583 29.0767 141.886 29.4391C142.189 29.8014 142.628 30.0123 143.1 30.0123ZM193.604 20.2556L195.056 28.4114C195.062 28.4411 195.056 28.4708 195.036 28.4946C195.015 28.5183 194.991 28.5302 194.958 28.5302H183.084C183.093 28.4025 183.087 28.2718 183.063 28.1441L181.088 17.4222L192.099 18.8211C192.862 18.925 193.468 19.5042 193.604 20.2556ZM145.007 17.544C145.161 16.6975 145.9 16.0827 146.759 16.0827H177.851C178.713 16.0827 179.449 16.6975 179.603 17.544L181.605 28.4085C181.611 28.4382 181.605 28.4649 181.584 28.4886C181.563 28.5124 181.54 28.5243 181.507 28.5243H176.56H143.1C143.071 28.5243 143.044 28.5124 143.023 28.4886C143.002 28.4649 142.996 28.4382 143.002 28.4085L145.007 17.544Z" fill="#28B358"/>
<path d="M204.288 37.6339L201.805 36.6063C194.147 33.4343 185.94 31.8037 177.652 31.8037H146.235C137.948 31.8037 129.74 33.4372 122.082 36.6063L119.6 37.6339V43.4226H204.291V37.6339H204.288Z" fill="#28B358"/>
<path d="M250.208 67.3962L198.056 63.7905C194.632 63.5618 191.972 60.7165 191.972 57.2861V45.0762H131.915V57.2861C131.915 60.7195 129.254 63.5618 125.83 63.7905L73.6782 67.3962C72.7934 67.4556 72.1074 68.1892 72.1074 69.0772V71.2543H77.4286V100.827H246.455V71.2543H251.776V69.0772C251.779 68.1922 251.093 67.4556 250.208 67.3962ZM243.488 97.8542H80.401V71.2513H243.488V97.8542Z" fill="#28B358"/>
<path d="M250.374 373.334H254.952C255.419 373.334 255.793 372.957 255.793 372.494V361.653C255.793 361.187 255.416 360.812 254.952 360.812H250.374C249.907 360.812 249.533 361.19 249.533 361.653V372.494C249.53 372.957 249.907 373.334 250.374 373.334ZM251.253 362.384H252.66V371.757H251.253V362.384Z" fill="#555555"/>
<path d="M0 301.548V401.208C0 419.014 14.4314 433.448 32.2332 433.448H49.1946V439.997H273.805V433.448H290.767C308.569 433.448 323 419.014 323 401.208V301.548H0ZM318.843 401.208C318.843 416.694 306.246 429.29 290.767 429.29H32.2332C16.7506 429.29 4.15721 416.691 4.15721 401.208V305.706H318.843V401.208Z" fill="#555555"/>
<path d="M93.22 413.878H229.784C234.268 413.878 237.903 410.243 237.903 405.758V327.583C237.903 323.098 234.268 319.463 229.784 319.463H93.22C88.7361 319.463 85.1016 323.098 85.1016 327.583V405.758C85.0986 410.243 88.7361 413.878 93.22 413.878Z" fill="#555555"/>
</svg>
