<svg width="48" height="33" viewBox="0 0 48 33" fill="none" xmlns="http://www.w3.org/2000/svg">
<path fill-rule="evenodd" clip-rule="evenodd" d="M29.9718 24.0557C28.3122 25.8212 26.1355 26.7039 23.9546 26.7039C21.7779 26.7039 19.5969 25.8212 17.9373 24.0557C15.2089 21.1546 14.857 16.5708 16.7339 12.9892L22.7511 1.5043C23.0118 1.00316 23.4853 0.754883 23.9546 0.754883C24.4281 0.754883 24.8973 1.00316 25.158 1.5043L31.1753 12.9892C33.0521 16.5708 32.7002 21.15 29.9718 24.0557ZM23.9546 8.47432L20.4485 15.1685C19.4362 17.0949 19.6491 19.4994 20.9481 20.8879C21.7519 21.7431 22.8163 22.2121 23.9546 22.2121C25.0928 22.2121 26.1573 21.7431 26.961 20.8879C28.26 19.504 28.4729 17.0995 27.4606 15.1685L23.9546 8.47432ZM44.6949 19.6866V16.5199H47.6138V27.0193C47.6138 30.2121 45.0228 32.8092 41.8377 32.8092H6.07098C2.88587 32.8092 0.294922 30.2121 0.294922 27.0193L0.294922 16.5199H3.21704V19.6866H13.4217V20.9885H3.21704L3.21704 27.0193C3.21704 28.5978 4.49953 29.8833 6.07098 29.8801H41.841C43.4124 29.8801 44.6949 28.5978 44.6949 27.0193V20.9885H34.4902V19.6866H44.6949Z" fill="white"/>
</svg>
