<svg xmlns="http://www.w3.org/2000/svg" viewBox="0 0 42.93 40.4"><defs><style>.cls-1{fill:#fff;}.cls-2{fill:#444;}</style></defs><g id="Layer_2" data-name="Layer 2"><g id="Layer_1-2" data-name="Layer 1"><polygon class="cls-1" points="2.83 20.2 20.2 2.83 27.04 9.67 21.35 15.36 40.93 15.36 40.93 25.04 21.35 25.04 27.04 30.73 20.2 37.57 2.83 20.2"/><path class="cls-2" d="M20.2,5.66l4,4-7.69,7.69H38.93V23H16.52l7.69,7.69-4,4L5.66,20.2,20.2,5.66M20.2,0,17.37,2.83,2.83,17.37,0,20.2,2.83,23,17.37,37.57,20.2,40.4,23,37.57l4-4,2.83-2.83L27,27.9,26.18,27H42.93V13.36H26.18L27,12.5l2.83-2.83L27,6.84l-4-4L20.2,0Z"/></g></g></svg>