<svg xmlns="http://www.w3.org/2000/svg" viewBox="0 0 146.24 102.03"><defs><style>.cls-1{fill:none;stroke:#fff;stroke-miterlimit:10;stroke-width:2px;}.cls-2{fill:#fff;}</style></defs><g id="Layer_2" data-name="Layer 2"><g id="Layer_1-2" data-name="Layer 1"><path class="cls-1" d="M1,1V91a10,10,0,0,0,10,10H58A10,10,0,0,0,68,91V1Z"/><path class="cls-1" d="M78.24,1V91a10,10,0,0,0,10,10h47a10,10,0,0,0,10-10V1Z"/><path class="cls-2" d="M126.67,69.28H97.43v-5.8l13.8-14.71a34,34,0,0,0,4.2-5.42A8.65,8.65,0,0,0,116.79,39a6.54,6.54,0,0,0-1.43-4.47,5.21,5.21,0,0,0-4.1-1.63,5.58,5.58,0,0,0-4.53,2,7.85,7.85,0,0,0-1.66,5.2H96.58a14,14,0,0,1,1.86-7.12,13.06,13.06,0,0,1,5.26-5.05A16,16,0,0,1,111.4,26q6.6,0,10.24,3.16t3.65,8.94a14.34,14.34,0,0,1-1.64,6.44A35.9,35.9,0,0,1,118,52.23l-9.69,10.22h18.34Z"/><path class="cls-2" d="M40.75,69.28H32.29V36.64L22.18,39.78V32.89l17.67-6.32h.9Z"/></g></g></svg>