<svg xmlns="http://www.w3.org/2000/svg" viewBox="0 0 36 42"><defs><style>.cls-1{fill:#00adee;}</style></defs><g id="Layer_2" data-name="Layer 2"><g id="Layer_1-2" data-name="Layer 1"><path class="cls-1" d="M32.06,12.84A17.51,17.51,0,0,1,36,24a17.39,17.39,0,0,1-5.25,12.7A17.29,17.29,0,0,1,18,42,17.29,17.29,0,0,1,5.25,36.7,17.39,17.39,0,0,1,0,24,17.39,17.39,0,0,1,5.25,11.3,17.29,17.29,0,0,1,18,6a17.87,17.87,0,0,1,11.25,4l2.81-2.91a20.87,20.87,0,0,1,2.82,2.82Zm-24,21.1A13.38,13.38,0,0,0,18,38.06a13.4,13.4,0,0,0,9.89-4.12A13.62,13.62,0,0,0,32,24a13.46,13.46,0,0,0-4.08-9.89A13.47,13.47,0,0,0,18,10a13.46,13.46,0,0,0-9.89,4.08A13.46,13.46,0,0,0,4,24,13.62,13.62,0,0,0,8.11,33.94ZM24,0V4H12V0ZM16,26.06v-12H20v12Z"/></g></g></svg>