<svg xmlns="http://www.w3.org/2000/svg" viewBox="0 0 250.02 48.96"><defs><style>.cls-1{fill:#fff;}</style></defs><g id="Layer_2" data-name="Layer 2"><g id="Layer_1-2" data-name="Layer 1"><rect class="cls-1" y="22.86" width="19.53" height="19.53"/><rect class="cls-1" x="22.85" width="19.53" height="19.53"/><polygon class="cls-1" points="0 0 4.05 15.48 19.53 19.53 15.61 3.92 0 0"/><polygon class="cls-1" points="22.85 22.86 26.9 38.34 42.38 42.39 38.46 26.77 22.85 22.86"/><path class="cls-1" d="M61,10.2A6.59,6.59,0,0,1,65,9.09a6.19,6.19,0,0,1,4.22,1.32,4.69,4.69,0,0,1,1.5,3.71H77.9a10,10,0,0,0-1.6-5.58,10.59,10.59,0,0,0-4.52-3.8A15.65,15.65,0,0,0,65.16,3.4a17,17,0,0,0-6.65,1.24A10.23,10.23,0,0,0,54,8.08a8.34,8.34,0,0,0-1.58,5q0,5.41,5.9,8.6a36.53,36.53,0,0,0,5.88,2.37,18.76,18.76,0,0,1,5.15,2.28,3.69,3.69,0,0,1,1.43,3.11,3.4,3.4,0,0,1-1.43,2.9,6.68,6.68,0,0,1-4,1q-6.86,0-6.86-5.74H51.3A10.3,10.3,0,0,0,53,33.55a11.53,11.53,0,0,0,5,4A17.65,17.65,0,0,0,65.33,39c3.84,0,6.9-.86,9.17-2.56a8.36,8.36,0,0,0,3.4-7.07,9.05,9.05,0,0,0-2.78-6.76q-2.79-2.72-8.88-4.55a19.18,19.18,0,0,1-5-2.14,3.35,3.35,0,0,1-1.7-2.83A3.49,3.49,0,0,1,61,10.2Z"/><path class="cls-1" d="M114,15.85l-.19-3.07h-6.51V38.55h6.89V21.69c.81-1.76,2.51-2.65,5.12-2.65a19.74,19.74,0,0,1,2.57.2V12.61a7.43,7.43,0,0,0-2.14-.3A6.37,6.37,0,0,0,114,15.85Z"/><polygon class="cls-1" points="125.13 38.55 132.03 38.55 132.03 12.78 125.13 16.11 125.13 38.55"/><polygon class="cls-1" points="125.13 12.73 132.03 9.52 132.03 3.13 125.13 6.46 125.13 12.73"/><path class="cls-1" d="M149.46,12.31a9,9,0,0,0-7.4,3.45l-.22-3h-6.47V38.55h6.88V20.34a4.73,4.73,0,0,1,4.36-2.49,4.24,4.24,0,0,1,3.16,1,4.49,4.49,0,0,1,1,3.19V38.55h6.88V21.9c0-3.19-.72-5.59-2.05-7.19S152.19,12.31,149.46,12.31Z"/><path class="cls-1" d="M167.77,5.15l-6.88,3.4V31.24q.13,7.31,7.38,7.31h4.17V32.88h-2a2.7,2.7,0,0,1-2.09-.62,3,3,0,0,1-.55-2v-12h4.67v-5h-4.67Z"/><path class="cls-1" d="M242.64,12.78l-4.76,16-4.79-16h-7.4l9,25.84-.81,2.12a3.92,3.92,0,0,1-1.51,2,5.75,5.75,0,0,1-2.92.59l-1.07,0L225.69,49h5.78a7.86,7.86,0,0,0,7.62-5.05l.58-1.36L250,12.78Z"/><path class="cls-1" d="M222.37,14.7a11.2,11.2,0,0,0-7.56-2.39,14.33,14.33,0,0,0-5.67,1.08,9.11,9.11,0,0,0-3.9,3,6.91,6.91,0,0,0-1.38,4.14h6.88a2.81,2.81,0,0,1,1-2.28,4.06,4.06,0,0,1,2.72-.84,3.63,3.63,0,0,1,2.9,1.07,4.27,4.27,0,0,1,.91,2.86v1.48H215.1c-3.83,0-6.75.75-8.78,2.21a7.3,7.3,0,0,0-3,6.29,7,7,0,0,0,2.49,5.52,9.11,9.11,0,0,0,6.28,2.2h13.12V21.43A8.36,8.36,0,0,0,222.37,14.7Zm-4.11,19.06h-4.71a3.51,3.51,0,0,1-2.48-.83,2.77,2.77,0,0,1-.9-2.12l0-.41c.22-2.38,2.06-3.57,5.5-3.57h2.57Z"/><path class="cls-1" d="M195.22,24.05a10.55,10.55,0,0,0,4.66-3.78,10.7,10.7,0,0,0,1.53-5.92,9.47,9.47,0,0,0-3.33-7.74q-3.33-2.73-9.48-2.74H175.79V9.66H188.6a5.79,5.79,0,0,1,4.28,1.41,5.25,5.25,0,0,1,1.39,3.85,4.88,4.88,0,0,1-1.48,3.78,5.9,5.9,0,0,1-4.17,1.37h-5.76V13.2h-7.07V38.55h7.07V25.86h5.69l6.5,12.69h7.67v-.33Z"/><path class="cls-1" d="M101.63,16.16a8.87,8.87,0,0,0-7.4-3.38H81.08v5.87H92.42a4.19,4.19,0,0,1,3.7,1.87A7.59,7.59,0,0,1,97.4,25.3c0,5.17-1.65,7.22-4.93,7.22H87.41V22.18H81.08V46l6.33,2.92V38.38h6.87a8.79,8.79,0,0,0,7.29-3.44q2.72-3.43,2.71-9.13v-.35Q104.28,19.54,101.63,16.16Z"/></g></g></svg>