<svg xmlns="http://www.w3.org/2000/svg" viewBox="0 0 62.96 44.28"><defs><style>.cls-1{fill:none;stroke:#fff;stroke-miterlimit:10;stroke-width:2px;}.cls-2{fill:#fff;}</style></defs><g id="Layer_2" data-name="Layer 2"><g id="Layer_1-2" data-name="Layer 1"><path class="cls-1" d="M1,1V39.05a4.23,4.23,0,0,0,4.23,4.23H25.09a4.24,4.24,0,0,0,4.23-4.23V1Z"/><path class="cls-1" d="M33.64,1V39.05a4.24,4.24,0,0,0,4.23,4.23H57.73A4.23,4.23,0,0,0,62,39.05V1Z"/><path class="cls-2" d="M54.11,29.86H41.75V27.41l5.84-6.22a14,14,0,0,0,1.77-2.29A3.62,3.62,0,0,0,49.94,17a2.74,2.74,0,0,0-.61-1.89,2.2,2.2,0,0,0-1.73-.68,2.36,2.36,0,0,0-1.91.83,3.3,3.3,0,0,0-.7,2.2h-3.6a6,6,0,0,1,.79-3,5.55,5.55,0,0,1,2.22-2.13,6.74,6.74,0,0,1,3.26-.78A6.41,6.41,0,0,1,52,12.92a4.72,4.72,0,0,1,1.54,3.78,6.06,6.06,0,0,1-.69,2.72,15.65,15.65,0,0,1-2.38,3.23L46.36,27h7.75Z"/><path class="cls-2" d="M17.8,29.86H14.22V16.06L10,17.39V14.48l7.47-2.68h.38Z"/><polygon class="cls-2" points="26.82 26.58 28.08 25.33 21.43 25.33 21.43 18.93 28.08 18.93 26.82 17.68 31.35 13.15 40.32 22.13 31.35 31.1 26.82 26.58"/><path d="M31.35,16l6.15,6.15-6.15,6.14-1.7-1.69,3.26-3.25H23.43v-2.4h9.48l-3.26-3.25,1.7-1.7m0-5.66-2.83,2.83-1.7,1.7-2.08,2.08H19.43v10.4h5.31l2.08,2.08,1.7,1.69,2.83,2.83,2.83-2.83L40.32,25l2.83-2.83L40.32,19.3l-6.14-6.15-2.83-2.83Z"/></g></g></svg>